<mxfile host="app.diagrams.net" modified="2022-07-08T05:18:24.963Z" agent="5.0 (Macintosh; Intel Mac OS X 10_15_7) AppleWebKit/537.36 (KHTML, like Gecko) Chrome/103.0.0.0 Safari/537.36" etag="eRIT3l-MQt5lH1qdXa8a" version="20.0.4" type="github">
  <diagram id="C5RBs43oDa-KdzZeNtuy" name="Page-1">
    <mxGraphModel dx="1298" dy="834" grid="1" gridSize="10" guides="1" tooltips="1" connect="1" arrows="1" fold="1" page="1" pageScale="1" pageWidth="827" pageHeight="1169" math="0" shadow="0">
      <root>
        <mxCell id="WIyWlLk6GJQsqaUBKTNV-0" />
        <mxCell id="WIyWlLk6GJQsqaUBKTNV-1" parent="WIyWlLk6GJQsqaUBKTNV-0" />
        <mxCell id="zkfFHV4jXpPFQw0GAbJ--0" value="Streaming Plan" style="swimlane;fontStyle=2;align=center;verticalAlign=top;childLayout=stackLayout;horizontal=1;startSize=26;horizontalStack=0;resizeParent=1;resizeLast=0;collapsible=1;marginBottom=0;rounded=0;shadow=0;strokeWidth=1;" parent="WIyWlLk6GJQsqaUBKTNV-1" vertex="1">
          <mxGeometry x="53" y="70" width="150" height="110" as="geometry">
            <mxRectangle x="230" y="140" width="160" height="26" as="alternateBounds" />
          </mxGeometry>
        </mxCell>
        <mxCell id="zkfFHV4jXpPFQw0GAbJ--1" value="Streaming Fragment Dag  " style="text;align=left;verticalAlign=top;spacingLeft=4;spacingRight=4;overflow=hidden;rotatable=0;points=[[0,0.5],[1,0.5]];portConstraint=eastwest;" parent="zkfFHV4jXpPFQw0GAbJ--0" vertex="1">
          <mxGeometry y="26" width="150" height="26" as="geometry" />
        </mxCell>
        <mxCell id="zkfFHV4jXpPFQw0GAbJ--3" value="..." style="text;align=left;verticalAlign=top;spacingLeft=4;spacingRight=4;overflow=hidden;rotatable=0;points=[[0,0.5],[1,0.5]];portConstraint=eastwest;rounded=0;shadow=0;html=0;" parent="zkfFHV4jXpPFQw0GAbJ--0" vertex="1">
          <mxGeometry y="52" width="150" height="26" as="geometry" />
        </mxCell>
        <mxCell id="DOWXigdAjjMKI0ve5YQH-2" value="Streaming Fragment Dag " style="text;align=left;verticalAlign=top;spacingLeft=4;spacingRight=4;overflow=hidden;rotatable=0;points=[[0,0.5],[1,0.5]];portConstraint=eastwest;rounded=0;shadow=0;html=0;" vertex="1" parent="zkfFHV4jXpPFQw0GAbJ--0">
          <mxGeometry y="78" width="150" height="26" as="geometry" />
        </mxCell>
        <mxCell id="DOWXigdAjjMKI0ve5YQH-31" style="edgeStyle=orthogonalEdgeStyle;rounded=0;orthogonalLoop=1;jettySize=auto;html=1;exitX=1;exitY=0.5;exitDx=0;exitDy=0;fontFamily=Helvetica;fontSize=12;fontColor=default;startSize=26;" edge="1" parent="zkfFHV4jXpPFQw0GAbJ--0" source="zkfFHV4jXpPFQw0GAbJ--1" target="zkfFHV4jXpPFQw0GAbJ--1">
          <mxGeometry relative="1" as="geometry" />
        </mxCell>
        <mxCell id="DOWXigdAjjMKI0ve5YQH-23" value="Streaming Fragment Dag" style="swimlane;fontStyle=2;align=center;verticalAlign=top;childLayout=stackLayout;horizontal=1;startSize=26;horizontalStack=0;resizeParent=1;resizeLast=0;collapsible=1;marginBottom=0;rounded=0;shadow=0;strokeWidth=1;" vertex="1" parent="WIyWlLk6GJQsqaUBKTNV-1">
          <mxGeometry x="53" y="200" width="150" height="110" as="geometry">
            <mxRectangle x="230" y="140" width="160" height="26" as="alternateBounds" />
          </mxGeometry>
        </mxCell>
        <mxCell id="DOWXigdAjjMKI0ve5YQH-24" value="Streaming Fragment" style="text;align=left;verticalAlign=top;spacingLeft=4;spacingRight=4;overflow=hidden;rotatable=0;points=[[0,0.5],[1,0.5]];portConstraint=eastwest;" vertex="1" parent="DOWXigdAjjMKI0ve5YQH-23">
          <mxGeometry y="26" width="150" height="26" as="geometry" />
        </mxCell>
        <mxCell id="DOWXigdAjjMKI0ve5YQH-25" value="..." style="text;align=left;verticalAlign=top;spacingLeft=4;spacingRight=4;overflow=hidden;rotatable=0;points=[[0,0.5],[1,0.5]];portConstraint=eastwest;rounded=0;shadow=0;html=0;" vertex="1" parent="DOWXigdAjjMKI0ve5YQH-23">
          <mxGeometry y="52" width="150" height="26" as="geometry" />
        </mxCell>
        <mxCell id="DOWXigdAjjMKI0ve5YQH-26" value="Streaming Fragment " style="text;align=left;verticalAlign=top;spacingLeft=4;spacingRight=4;overflow=hidden;rotatable=0;points=[[0,0.5],[1,0.5]];portConstraint=eastwest;rounded=0;shadow=0;html=0;" vertex="1" parent="DOWXigdAjjMKI0ve5YQH-23">
          <mxGeometry y="78" width="150" height="26" as="geometry" />
        </mxCell>
        <mxCell id="DOWXigdAjjMKI0ve5YQH-34" style="edgeStyle=orthogonalEdgeStyle;rounded=0;orthogonalLoop=1;jettySize=auto;html=1;exitX=0;exitY=0.5;exitDx=0;exitDy=0;entryX=0;entryY=0.164;entryDx=0;entryDy=0;entryPerimeter=0;fontFamily=Helvetica;fontSize=12;fontColor=default;startSize=26;" edge="1" parent="WIyWlLk6GJQsqaUBKTNV-1" source="zkfFHV4jXpPFQw0GAbJ--1" target="DOWXigdAjjMKI0ve5YQH-23">
          <mxGeometry relative="1" as="geometry" />
        </mxCell>
        <mxCell id="DOWXigdAjjMKI0ve5YQH-35" value="Streaming Fragment" style="swimlane;fontStyle=2;align=center;verticalAlign=top;childLayout=stackLayout;horizontal=1;startSize=26;horizontalStack=0;resizeParent=1;resizeLast=0;collapsible=1;marginBottom=0;rounded=0;shadow=0;strokeWidth=1;" vertex="1" parent="WIyWlLk6GJQsqaUBKTNV-1">
          <mxGeometry x="53" y="330" width="150" height="110" as="geometry">
            <mxRectangle x="230" y="140" width="160" height="26" as="alternateBounds" />
          </mxGeometry>
        </mxCell>
        <mxCell id="DOWXigdAjjMKI0ve5YQH-36" value="Plan Node" style="text;align=left;verticalAlign=top;spacingLeft=4;spacingRight=4;overflow=hidden;rotatable=0;points=[[0,0.5],[1,0.5]];portConstraint=eastwest;" vertex="1" parent="DOWXigdAjjMKI0ve5YQH-35">
          <mxGeometry y="26" width="150" height="26" as="geometry" />
        </mxCell>
        <mxCell id="DOWXigdAjjMKI0ve5YQH-37" value="..." style="text;align=left;verticalAlign=top;spacingLeft=4;spacingRight=4;overflow=hidden;rotatable=0;points=[[0,0.5],[1,0.5]];portConstraint=eastwest;rounded=0;shadow=0;html=0;" vertex="1" parent="DOWXigdAjjMKI0ve5YQH-35">
          <mxGeometry y="52" width="150" height="26" as="geometry" />
        </mxCell>
        <mxCell id="DOWXigdAjjMKI0ve5YQH-38" value="Plan Node" style="text;align=left;verticalAlign=top;spacingLeft=4;spacingRight=4;overflow=hidden;rotatable=0;points=[[0,0.5],[1,0.5]];portConstraint=eastwest;rounded=0;shadow=0;html=0;" vertex="1" parent="DOWXigdAjjMKI0ve5YQH-35">
          <mxGeometry y="78" width="150" height="26" as="geometry" />
        </mxCell>
        <mxCell id="DOWXigdAjjMKI0ve5YQH-39" style="edgeStyle=orthogonalEdgeStyle;rounded=0;orthogonalLoop=1;jettySize=auto;html=1;exitX=1;exitY=0.5;exitDx=0;exitDy=0;fontFamily=Helvetica;fontSize=12;fontColor=default;startSize=26;" edge="1" parent="DOWXigdAjjMKI0ve5YQH-35" source="DOWXigdAjjMKI0ve5YQH-36" target="DOWXigdAjjMKI0ve5YQH-36">
          <mxGeometry relative="1" as="geometry" />
        </mxCell>
        <mxCell id="DOWXigdAjjMKI0ve5YQH-40" value="Plan Node" style="swimlane;fontStyle=2;align=center;verticalAlign=top;childLayout=stackLayout;horizontal=1;startSize=26;horizontalStack=0;resizeParent=1;resizeLast=0;collapsible=1;marginBottom=0;rounded=0;shadow=0;strokeWidth=1;" vertex="1" parent="WIyWlLk6GJQsqaUBKTNV-1">
          <mxGeometry x="53" y="460" width="150" height="110" as="geometry">
            <mxRectangle x="230" y="140" width="160" height="26" as="alternateBounds" />
          </mxGeometry>
        </mxCell>
        <mxCell id="DOWXigdAjjMKI0ve5YQH-42" value="Exprs of Node：&#xa;&#xa;    nodes&#xa;    ...&#xa;    nodes&#xa;" style="text;align=left;verticalAlign=top;spacingLeft=4;spacingRight=4;overflow=hidden;rotatable=0;points=[[0,0.5],[1,0.5]];portConstraint=eastwest;rounded=0;shadow=0;html=0;" vertex="1" parent="DOWXigdAjjMKI0ve5YQH-40">
          <mxGeometry y="26" width="150" height="84" as="geometry" />
        </mxCell>
        <mxCell id="DOWXigdAjjMKI0ve5YQH-44" style="edgeStyle=orthogonalEdgeStyle;rounded=0;orthogonalLoop=1;jettySize=auto;html=1;exitX=0;exitY=0.5;exitDx=0;exitDy=0;entryX=0;entryY=0.164;entryDx=0;entryDy=0;entryPerimeter=0;fontFamily=Helvetica;fontSize=12;fontColor=default;startSize=26;" edge="1" parent="WIyWlLk6GJQsqaUBKTNV-1" source="DOWXigdAjjMKI0ve5YQH-36" target="DOWXigdAjjMKI0ve5YQH-40">
          <mxGeometry relative="1" as="geometry" />
        </mxCell>
        <mxCell id="DOWXigdAjjMKI0ve5YQH-45" style="edgeStyle=orthogonalEdgeStyle;rounded=0;orthogonalLoop=1;jettySize=auto;html=1;exitX=0;exitY=0.5;exitDx=0;exitDy=0;entryX=0;entryY=0.136;entryDx=0;entryDy=0;entryPerimeter=0;fontFamily=Helvetica;fontSize=12;fontColor=default;startSize=26;" edge="1" parent="WIyWlLk6GJQsqaUBKTNV-1" source="DOWXigdAjjMKI0ve5YQH-24" target="DOWXigdAjjMKI0ve5YQH-35">
          <mxGeometry relative="1" as="geometry" />
        </mxCell>
        <mxCell id="DOWXigdAjjMKI0ve5YQH-46" value="对应一个物化视图query，&lt;span style=&quot;background-color: initial;&quot;&gt;是由Streaming Fragment构成的一棵树， 即由拥有1~N个Source算子，1个Sink算子，以及0~M个中间算子(如Aggregate算子)组成&lt;/span&gt;" style="rounded=0;whiteSpace=wrap;html=1;shadow=0;fontFamily=Helvetica;fontSize=12;fontColor=default;startSize=26;strokeColor=default;strokeWidth=1;fillColor=default;" vertex="1" parent="WIyWlLk6GJQsqaUBKTNV-1">
          <mxGeometry x="217" y="70" width="180" height="110" as="geometry" />
        </mxCell>
        <mxCell id="DOWXigdAjjMKI0ve5YQH-51" style="edgeStyle=orthogonalEdgeStyle;rounded=0;orthogonalLoop=1;jettySize=auto;html=1;exitX=0.5;exitY=1;exitDx=0;exitDy=0;fontFamily=Helvetica;fontSize=12;fontColor=default;startSize=26;" edge="1" parent="WIyWlLk6GJQsqaUBKTNV-1" source="DOWXigdAjjMKI0ve5YQH-47" target="DOWXigdAjjMKI0ve5YQH-49">
          <mxGeometry relative="1" as="geometry" />
        </mxCell>
        <mxCell id="DOWXigdAjjMKI0ve5YQH-47" value="&lt;div style=&quot;color: rgb(101, 123, 131); font-family: Menlo, Monaco, &amp;quot;Courier New&amp;quot;, monospace; line-height: 18px;&quot;&gt;&lt;span style=&quot;color: rgb(203, 75, 22);&quot;&gt;StreamingQueryExecutor&lt;/span&gt;&lt;/div&gt;" style="rounded=0;whiteSpace=wrap;html=1;shadow=0;fontFamily=Helvetica;fontSize=12;fontColor=default;startSize=26;strokeColor=default;strokeWidth=1;fillColor=default;" vertex="1" parent="WIyWlLk6GJQsqaUBKTNV-1">
          <mxGeometry x="410" y="70" width="180" height="110" as="geometry" />
        </mxCell>
        <mxCell id="DOWXigdAjjMKI0ve5YQH-48" value="&lt;div class=&quot;lake-content&quot;&gt;&lt;span class=&quot;ne-text&quot;&gt;是一棵不跨网络(Actor)的算子树，一个Fragment必定在一个TG里，而这个TG的shard count即为Streaming Fragment的并发数。&lt;/span&gt;&lt;/div&gt;" style="rounded=0;whiteSpace=wrap;html=1;shadow=0;fontFamily=Helvetica;fontSize=12;fontColor=default;startSize=26;strokeColor=default;strokeWidth=1;fillColor=default;" vertex="1" parent="WIyWlLk6GJQsqaUBKTNV-1">
          <mxGeometry x="217" y="330" width="180" height="110" as="geometry" />
        </mxCell>
        <mxCell id="DOWXigdAjjMKI0ve5YQH-52" style="edgeStyle=orthogonalEdgeStyle;rounded=0;orthogonalLoop=1;jettySize=auto;html=1;exitX=0.5;exitY=1;exitDx=0;exitDy=0;entryX=0.5;entryY=0;entryDx=0;entryDy=0;fontFamily=Helvetica;fontSize=12;fontColor=default;startSize=26;" edge="1" parent="WIyWlLk6GJQsqaUBKTNV-1" source="DOWXigdAjjMKI0ve5YQH-49" target="DOWXigdAjjMKI0ve5YQH-50">
          <mxGeometry relative="1" as="geometry" />
        </mxCell>
        <mxCell id="DOWXigdAjjMKI0ve5YQH-49" value="&lt;div style=&quot;font-family: Menlo, Monaco, &amp;quot;Courier New&amp;quot;, monospace; font-weight: normal; font-size: 12px; line-height: 18px;&quot;&gt;&lt;div style=&quot;color: rgb(101, 123, 131);&quot;&gt;&lt;span style=&quot;color: rgb(203, 75, 22); background-color: rgb(255, 255, 255);&quot;&gt;StreamingFragmentWrapper&lt;/span&gt;&lt;/div&gt;&lt;div style=&quot;&quot;&gt;&lt;div style=&quot;line-height: 18px;&quot;&gt;&lt;font color=&quot;#cb4b16&quot;&gt;&lt;span style=&quot;background-color: rgb(255, 255, 255);&quot;&gt;⬇️&lt;/span&gt;&lt;/font&gt;&lt;/div&gt;&lt;div style=&quot;color: rgb(101, 123, 131); line-height: 18px;&quot;&gt;&lt;span style=&quot;color: rgb(203, 75, 22); background-color: rgb(255, 255, 255);&quot;&gt;StreamingFragment&lt;/span&gt;&lt;/div&gt;&lt;div style=&quot;color: rgb(101, 123, 131); line-height: 18px;&quot;&gt;&lt;span style=&quot;color: rgb(203, 75, 22); background-color: rgb(255, 255, 255);&quot;&gt;（::&lt;/span&gt;&lt;span style=&quot;color: rgb(38, 139, 210);&quot;&gt;operator_factory&lt;/span&gt;&lt;span style=&quot;background-color: rgb(253, 246, 227);&quot;&gt;-&amp;gt;&lt;/span&gt;&lt;span style=&quot;color: rgb(38, 139, 210);&quot;&gt;CreateOperator&lt;/span&gt;&lt;span style=&quot;background-color: rgb(255, 255, 255); color: rgb(203, 75, 22);&quot;&gt;）&lt;/span&gt;&lt;/div&gt;&lt;/div&gt;&lt;/div&gt;" style="rounded=0;whiteSpace=wrap;html=1;shadow=0;fontFamily=Helvetica;fontSize=12;fontColor=default;startSize=26;strokeColor=default;strokeWidth=1;fillColor=default;" vertex="1" parent="WIyWlLk6GJQsqaUBKTNV-1">
          <mxGeometry x="410" y="330" width="180" height="110" as="geometry" />
        </mxCell>
        <mxCell id="DOWXigdAjjMKI0ve5YQH-59" style="edgeStyle=orthogonalEdgeStyle;rounded=0;orthogonalLoop=1;jettySize=auto;html=1;fontFamily=Helvetica;fontSize=12;fontColor=default;startSize=26;" edge="1" parent="WIyWlLk6GJQsqaUBKTNV-1" source="DOWXigdAjjMKI0ve5YQH-50">
          <mxGeometry relative="1" as="geometry">
            <mxPoint x="410" y="640" as="targetPoint" />
            <Array as="points">
              <mxPoint x="500" y="610" />
              <mxPoint x="410" y="610" />
            </Array>
          </mxGeometry>
        </mxCell>
        <mxCell id="DOWXigdAjjMKI0ve5YQH-50" value="&lt;div style=&quot;color: rgb(101, 123, 131); font-family: Menlo, Monaco, &amp;quot;Courier New&amp;quot;, monospace; font-weight: normal; font-size: 12px; line-height: 18px;&quot;&gt;&lt;div style=&quot;&quot;&gt;&lt;span style=&quot;background-color: initial; color: rgb(203, 75, 22);&quot;&gt;StreamingOperato&lt;/span&gt;&lt;span style=&quot;background-color: initial; color: rgb(203, 75, 22);&quot;&gt;rWrapper&lt;/span&gt;&lt;/div&gt;&lt;/div&gt;" style="rounded=0;whiteSpace=wrap;html=1;shadow=0;fontFamily=Helvetica;fontSize=12;fontColor=default;startSize=26;strokeColor=default;strokeWidth=1;fillColor=default;" vertex="1" parent="WIyWlLk6GJQsqaUBKTNV-1">
          <mxGeometry x="410" y="460" width="180" height="110" as="geometry" />
        </mxCell>
        <mxCell id="DOWXigdAjjMKI0ve5YQH-53" value="&lt;div class=&quot;lake-content&quot;&gt;实例化各个Node算子，并串成一颗以sink_op为根节点的算子树&lt;/div&gt;" style="rounded=0;whiteSpace=wrap;html=1;shadow=0;fontFamily=Helvetica;fontSize=12;fontColor=default;startSize=26;strokeColor=default;strokeWidth=1;fillColor=default;" vertex="1" parent="WIyWlLk6GJQsqaUBKTNV-1">
          <mxGeometry x="603" y="330" width="180" height="110" as="geometry" />
        </mxCell>
        <mxCell id="DOWXigdAjjMKI0ve5YQH-55" value="&lt;div class=&quot;lake-content&quot;&gt;&lt;span class=&quot;ne-text&quot;&gt;指在一个table group里, 同一个query所有的streaming fragment集合。 也就是说跨TG时会存在多Dag&lt;/span&gt;&lt;/div&gt;&lt;div class=&quot;lake-content&quot;&gt;&lt;span class=&quot;ne-text&quot;&gt;&lt;br&gt;&lt;/span&gt;&lt;/div&gt;&lt;div class=&quot;lake-content&quot;&gt;目前MV一个DAG只有一个Fragment&lt;/div&gt;" style="rounded=0;whiteSpace=wrap;html=1;shadow=0;fontFamily=Helvetica;fontSize=12;fontColor=default;startSize=26;strokeColor=default;strokeWidth=1;fillColor=default;" vertex="1" parent="WIyWlLk6GJQsqaUBKTNV-1">
          <mxGeometry x="217" y="200" width="180" height="110" as="geometry" />
        </mxCell>
        <mxCell id="DOWXigdAjjMKI0ve5YQH-57" value="&lt;div class=&quot;lake-content&quot;&gt;实例化各个Node算子，并串成一颗以sink_op为根节点的算子树&lt;/div&gt;" style="rounded=0;whiteSpace=wrap;html=1;shadow=0;fontFamily=Helvetica;fontSize=12;fontColor=default;startSize=26;strokeColor=default;strokeWidth=1;fillColor=default;" vertex="1" parent="WIyWlLk6GJQsqaUBKTNV-1">
          <mxGeometry x="603" y="70" width="180" height="110" as="geometry" />
        </mxCell>
        <mxCell id="DOWXigdAjjMKI0ve5YQH-58" value="每个Node是一个算子（source，中间算子，sink算子），&lt;br&gt;每个算子包含描述语句（多个nodes的串联）" style="rounded=0;whiteSpace=wrap;html=1;shadow=0;fontFamily=Helvetica;fontSize=12;fontColor=default;startSize=26;strokeColor=default;strokeWidth=1;fillColor=default;" vertex="1" parent="WIyWlLk6GJQsqaUBKTNV-1">
          <mxGeometry x="217" y="460" width="180" height="110" as="geometry" />
        </mxCell>
        <mxCell id="DOWXigdAjjMKI0ve5YQH-65" style="edgeStyle=orthogonalEdgeStyle;rounded=0;orthogonalLoop=1;jettySize=auto;html=1;fontFamily=Helvetica;fontSize=12;fontColor=default;startSize=26;entryX=0.5;entryY=0;entryDx=0;entryDy=0;" edge="1" parent="WIyWlLk6GJQsqaUBKTNV-1" source="DOWXigdAjjMKI0ve5YQH-50" target="DOWXigdAjjMKI0ve5YQH-61">
          <mxGeometry relative="1" as="geometry">
            <Array as="points">
              <mxPoint x="500" y="610" />
              <mxPoint x="690" y="610" />
            </Array>
          </mxGeometry>
        </mxCell>
        <mxCell id="DOWXigdAjjMKI0ve5YQH-61" value="&lt;div style=&quot;color: rgb(101, 123, 131); font-family: Menlo, Monaco, &amp;quot;Courier New&amp;quot;, monospace; font-weight: normal; font-size: 12px; line-height: 18px;&quot;&gt;&lt;div style=&quot;&quot;&gt;&lt;span style=&quot;background-color: initial; color: rgb(203, 75, 22);&quot;&gt;Sink&lt;/span&gt;&lt;/div&gt;&lt;/div&gt;" style="rounded=0;whiteSpace=wrap;html=1;shadow=0;fontFamily=Helvetica;fontSize=12;fontColor=default;startSize=26;strokeColor=default;strokeWidth=1;fillColor=default;" vertex="1" parent="WIyWlLk6GJQsqaUBKTNV-1">
          <mxGeometry x="630" y="640" width="120" height="70" as="geometry" />
        </mxCell>
        <mxCell id="DOWXigdAjjMKI0ve5YQH-66" style="edgeStyle=orthogonalEdgeStyle;rounded=0;orthogonalLoop=1;jettySize=auto;html=1;exitX=0.5;exitY=1;exitDx=0;exitDy=0;fontFamily=Helvetica;fontSize=12;fontColor=default;startSize=26;entryX=0.5;entryY=0;entryDx=0;entryDy=0;" edge="1" parent="WIyWlLk6GJQsqaUBKTNV-1" source="DOWXigdAjjMKI0ve5YQH-50" target="DOWXigdAjjMKI0ve5YQH-62">
          <mxGeometry relative="1" as="geometry">
            <mxPoint x="500" y="580" as="sourcePoint" />
            <Array as="points">
              <mxPoint x="500" y="610" />
              <mxPoint x="150" y="610" />
              <mxPoint x="150" y="640" />
            </Array>
          </mxGeometry>
        </mxCell>
        <mxCell id="DOWXigdAjjMKI0ve5YQH-71" style="edgeStyle=orthogonalEdgeStyle;rounded=0;orthogonalLoop=1;jettySize=auto;html=1;exitX=1;exitY=0.5;exitDx=0;exitDy=0;entryX=0;entryY=0.5;entryDx=0;entryDy=0;fontFamily=Helvetica;fontSize=12;fontColor=#000000;startSize=26;" edge="1" parent="WIyWlLk6GJQsqaUBKTNV-1" source="DOWXigdAjjMKI0ve5YQH-62" target="DOWXigdAjjMKI0ve5YQH-70">
          <mxGeometry relative="1" as="geometry" />
        </mxCell>
        <mxCell id="DOWXigdAjjMKI0ve5YQH-62" value="&lt;div style=&quot;font-family: Menlo, Monaco, &amp;quot;Courier New&amp;quot;, monospace; font-weight: normal; font-size: 12px; line-height: 18px;&quot;&gt;&lt;div style=&quot;&quot;&gt;&lt;font color=&quot;#cb4b16&quot;&gt;Source&lt;/font&gt;&lt;/div&gt;&lt;/div&gt;" style="rounded=0;whiteSpace=wrap;html=1;shadow=0;fontFamily=Helvetica;fontSize=12;fontColor=default;startSize=26;strokeColor=default;strokeWidth=1;fillColor=default;" vertex="1" parent="WIyWlLk6GJQsqaUBKTNV-1">
          <mxGeometry x="83" y="640" width="120" height="70" as="geometry" />
        </mxCell>
        <mxCell id="DOWXigdAjjMKI0ve5YQH-67" style="edgeStyle=orthogonalEdgeStyle;rounded=0;orthogonalLoop=1;jettySize=auto;html=1;exitX=0.5;exitY=1;exitDx=0;exitDy=0;fontFamily=Helvetica;fontSize=12;fontColor=default;startSize=26;" edge="1" parent="WIyWlLk6GJQsqaUBKTNV-1">
          <mxGeometry relative="1" as="geometry">
            <mxPoint x="414" y="710" as="sourcePoint" />
            <mxPoint x="414" y="710" as="targetPoint" />
          </mxGeometry>
        </mxCell>
        <mxCell id="DOWXigdAjjMKI0ve5YQH-72" style="edgeStyle=orthogonalEdgeStyle;rounded=0;orthogonalLoop=1;jettySize=auto;html=1;exitX=1;exitY=0.5;exitDx=0;exitDy=0;entryX=0;entryY=0.5;entryDx=0;entryDy=0;fontFamily=Helvetica;fontSize=12;fontColor=#000000;startSize=26;" edge="1" parent="WIyWlLk6GJQsqaUBKTNV-1" source="DOWXigdAjjMKI0ve5YQH-70" target="DOWXigdAjjMKI0ve5YQH-61">
          <mxGeometry relative="1" as="geometry" />
        </mxCell>
        <mxCell id="DOWXigdAjjMKI0ve5YQH-70" value="&lt;div style=&quot;font-family: Menlo, Monaco, &amp;quot;Courier New&amp;quot;, monospace; font-size: 12px; line-height: 18px;&quot;&gt;&lt;div style=&quot;font-weight: normal;&quot;&gt;&lt;div style=&quot;background-color: rgb(253, 246, 227); line-height: 18px;&quot;&gt;&lt;font color=&quot;#cb4b16&quot;&gt;StreamAggregateOperator&lt;/font&gt;&lt;/div&gt;&lt;div style=&quot;background-color: rgb(253, 246, 227); line-height: 18px;&quot;&gt;实例化各函数：&lt;/div&gt;&lt;/div&gt;&lt;div style=&quot;&quot;&gt;&lt;div style=&quot;background-color: rgb(253, 246, 227); line-height: 18px;&quot;&gt;&lt;span style=&quot;color: rgb(38, 139, 210);&quot;&gt;CreateAggregateFunction（）&lt;/span&gt;&lt;/div&gt;&lt;/div&gt;&lt;/div&gt;" style="rounded=0;whiteSpace=wrap;html=1;shadow=0;fontFamily=Helvetica;fontSize=12;fontColor=default;startSize=26;strokeColor=default;strokeWidth=1;fillColor=default;" vertex="1" parent="WIyWlLk6GJQsqaUBKTNV-1">
          <mxGeometry x="315.25" y="640" width="196.5" height="70" as="geometry" />
        </mxCell>
        <mxCell id="DOWXigdAjjMKI0ve5YQH-75" value="&lt;div style=&quot;color: rgb(101, 123, 131); background-color: rgb(253, 246, 227); font-family: Menlo, Monaco, &amp;quot;Courier New&amp;quot;, monospace; line-height: 18px;&quot;&gt;&lt;span style=&quot;color: #cb4b16;&quot;&gt;DataOrBarrier&lt;/span&gt;&lt;/div&gt;" style="text;html=1;align=center;verticalAlign=middle;resizable=0;points=[];autosize=1;strokeColor=none;fillColor=none;fontSize=12;fontFamily=Helvetica;fontColor=#000000;" vertex="1" parent="WIyWlLk6GJQsqaUBKTNV-1">
          <mxGeometry x="195.25" y="640" width="120" height="30" as="geometry" />
        </mxCell>
        <mxCell id="DOWXigdAjjMKI0ve5YQH-76" value="&lt;div style=&quot;color: rgb(101, 123, 131); background-color: rgb(253, 246, 227); font-family: Menlo, Monaco, &amp;quot;Courier New&amp;quot;, monospace; line-height: 18px;&quot;&gt;&lt;span style=&quot;color: #cb4b16;&quot;&gt;DataOrBarrier&lt;/span&gt;&lt;/div&gt;" style="text;html=1;align=center;verticalAlign=middle;resizable=0;points=[];autosize=1;strokeColor=none;fillColor=none;fontSize=12;fontFamily=Helvetica;fontColor=#000000;" vertex="1" parent="WIyWlLk6GJQsqaUBKTNV-1">
          <mxGeometry x="510" y="640" width="120" height="30" as="geometry" />
        </mxCell>
      </root>
    </mxGraphModel>
  </diagram>
</mxfile>
